<?xml version="1.0" encoding="iso-8859-1"?>
<!-- Generator: Adobe Illustrator 16.0.0, SVG Export Plug-In . SVG Version: 6.00 Build 0)  -->
<!DOCTYPE svg PUBLIC "-//W3C//DTD SVG 1.1//EN" "http://www.w3.org/Graphics/SVG/1.1/DTD/svg11.dtd">
<svg version="1.1" id="Capa_1" xmlns="http://www.w3.org/2000/svg" xmlns:xlink="http://www.w3.org/1999/xlink" x="0px" y="0px"
	 width="24.014px" height="24.014px" viewBox="0 0 24.014 24.014" style="enable-background:new 0 0 24.014 24.014;"
	 xml:space="preserve">
<g>
	<path d="M24.013,0.001c0,0-3.601-0.101-7.2,1.7c-1.1,0.5-2.3,1.3-3.3,2.3c-1.617,1.617-4.129,4.594-6.107,7H3.013l-2,3l3.392,0.917
		c0.01,0.121,0.042,0.292,0.136,0.523L4.014,16.6c0,0-0.2,0.4,1.3,2C6.914,20.201,7.414,20,7.414,20l1.243-0.564
		c0.186,0.058,0.324,0.078,0.414,0.078L10.014,23l3-2v-4.527c2.423-1.959,5.396-4.421,7-5.973c1-1,1.8-2.2,2.399-3.3
		C24.112,3.601,24.013,0.001,24.013,0.001z M17.013,9.001c-1.101,0-2-0.9-2-2c0-1.101,0.899-2,2-2c1.1,0,2,0.899,2,2
		C19.013,8.101,18.112,9.001,17.013,9.001z M6.513,21.001c0.2,0.101,0.3,0.2,0.5,0.3c-0.2,0.2-0.4,0.5-0.601,0.7
		c-2.301,2.3-6.399,2-6.399,2s-0.3-4.101,2-6.399c0.2-0.201,0.5-0.399,0.7-0.601c0.1,0.2,0.199,0.3,0.3,0.5
		c-1.5,1.899-1.3,4.8-1.3,4.8S4.612,22.501,6.513,21.001z"/>
</g>
<g>
</g>
<g>
</g>
<g>
</g>
<g>
</g>
<g>
</g>
<g>
</g>
<g>
</g>
<g>
</g>
<g>
</g>
<g>
</g>
<g>
</g>
<g>
</g>
<g>
</g>
<g>
</g>
<g>
</g>
</svg>
